<?xml version="1.0" encoding="UTF-8"?>
<svg id="Layer_2" data-name="Layer 2" xmlns="http://www.w3.org/2000/svg" xmlns:xlink="http://www.w3.org/1999/xlink" viewBox="0 0 944.82 369">
  <defs>
    <style>
      .cls-1 {
        fill: url(#linear-gradient-5);
      }

      .cls-2 {
        fill: url(#linear-gradient-4);
      }

      .cls-3 {
        fill: url(#linear-gradient-3);
      }

      .cls-4 {
        fill: url(#linear-gradient-2);
      }

      .cls-5 {
        fill: #658b2c;
      }

      .cls-6 {
        fill: url(#linear-gradient);
      }

      .cls-7 {
        fill: #f2f2f2;
      }
    </style>
    <linearGradient id="linear-gradient" x1="73.56" y1="336.45" x2="303.99" y2="135.19" gradientUnits="userSpaceOnUse">
      <stop offset="0" stop-color="#37660d"/>
      <stop offset=".24" stop-color="#436f1b"/>
      <stop offset=".69" stop-color="#638842"/>
      <stop offset="1" stop-color="#7c9c60"/>
    </linearGradient>
    <linearGradient id="linear-gradient-2" x1="4.92" y1="257.86" x2="235.38" y2="56.56" xlink:href="#linear-gradient"/>
    <linearGradient id="linear-gradient-3" x1="96.92" y1="123" x2="208.84" y2="225.51" gradientUnits="userSpaceOnUse">
      <stop offset="0" stop-color="#37660d"/>
      <stop offset="1" stop-color="#c9ff30"/>
    </linearGradient>
    <linearGradient id="linear-gradient-4" x1="95.67" y1="348.64" x2="293.86" y2="86.6" xlink:href="#linear-gradient-3"/>
    <linearGradient id="linear-gradient-5" x1="5.24" y1="280.24" x2="203.43" y2="18.2" xlink:href="#linear-gradient-3"/>
  </defs>
  <g id="Layer_1-2" data-name="Layer 1">
    <g>
      <g>
        <path class="cls-5" d="M265.83,74.71c-19.73-22.19-45.35-38.2-73.94-45.67-10.37-2.29-21.4-3.8-32.81-4.41V8.34c0-4.6-3.73-8.34-8.34-8.34h-9.21c-4.6,0-8.34,3.73-8.34,8.34v17.27c.74-.08,1.51-.15,2.27-.23-36.72,3.82-66.31,18.37-89.49,41.47-3.03,3.03-5.98,6.17-8.8,9.48C13.22,104.4,0,144.86,0,191.1c0,31.03,8.97,59.67,24.39,83.62,23.86,37.1,63.23,62.87,108.8,68.66v17.29c0,4.6,3.73,8.34,8.34,8.34h9.21c4.6,0,8.34-3.73,8.34-8.34v-16.29c5.24-.21,10.31-.57,15.17-1.12.15-.02.32-.04.49-.06.89-.11,1.76-.23,2.63-.36,33.13-4.94,62.32-19.88,84.51-42.57,27.66-28.3,44.44-68.6,44.44-116.6,0-42.93-15.51-80.86-40.47-108.94ZM178.33,261.54c-8.19,3.58-17.33,5.52-27.24,5.52-30.63,0-54.79-18.81-63.02-56.83,16.59,6,35.32,9.12,57.65,12.24,23.1,3.29,39.62,13.21,39.62,26.41,0,4.5-2.48,8.97-7.02,12.66ZM158.1,141.55c-22.27-4.12-31.37-13.19-31.37-24.75,0-10.73,13.21-16.52,30.57-16.52,10.18,0,19.68,4.48,29.12,9.35,15.04,9.84,24.71,25.86,29.76,43.59-22.76-8.93-41.09-8.27-58.08-11.67Z"/>
        <path class="cls-6" d="M306.31,183.66c0-42.93-15.51-80.86-40.49-108.95.82,2.46,1.27,4.94,1.27,7.4,0,18.16-16.51,39.63-46.24,39.63-12.1,0-23.24-6.33-34.45-12.12,15.05,9.85,24.73,25.86,29.77,43.59,10.44,4.1,21.81,10.23,34.4,19.71,22.7,16.92,32.2,38.81,32.2,66.05,0,20.81-6.3,42.78-20.92,61.27,27.66-28.29,44.45-68.6,44.45-116.59Z"/>
        <path class="cls-4" d="M68.11,247.23c25.6,0,39.63,23.12,80.09,23.12,13.46,0,23.81-3.65,30.14-8.81-8.18,3.58-17.33,5.5-27.24,5.5-30.62,0-54.79-18.8-63.01-56.81-9.78-3.53-18.82-8.07-27.4-14.19-23.95-16.52-35.5-40.46-35.5-68.53,0-23.21,6.79-43.58,20.8-60.68-3.04,3.03-6,6.17-8.82,9.48C13.21,104.4,0,144.85,0,191.09c0,31.03,8.99,59.67,24.4,83.62,4.43-16.38,25.37-27.48,43.72-27.48Z"/>
        <path class="cls-3" d="M85.05,179.53c0,11.35,1.06,21.58,3.04,30.71,16.58,5.99,35.31,9.11,57.64,12.23,23.12,3.3,39.63,13.21,39.63,26.42,0,4.48-2.48,8.96-7.02,12.66,25.89-11.33,42.11-39.42,42.11-77.06,0-10.43-1.38-21.13-4.27-31.27-22.75-8.94-41.09-8.27-58.07-11.67-22.29-4.12-31.37-13.21-31.37-24.77,0-10.73,13.21-16.52,30.55-16.52,10.19,0,19.69,4.49,29.12,9.36-9.73-6.37-21.7-10.18-36.14-10.18-37.15,0-65.22,32.61-65.22,80.09Z"/>
        <path class="cls-2" d="M282.78,238.97c0,20.81-6.3,42.78-20.92,61.28-22.19,22.7-51.37,37.63-84.51,42.57-.87.13-1.74.25-2.63.36-.17.02-.34.04-.49.06-4.86.55-9.93.93-15.17,1.12v16.29c0,4.6-3.73,8.34-8.34,8.34h-9.21c-4.6,0-8.34-3.73-8.34-8.34v-17.29c-45.58-5.79-84.93-31.56-108.8-68.66,4.43-16.38,25.37-27.49,43.72-27.49,25.6,0,39.62,23.12,80.07,23.12,13.47,0,23.82-3.65,30.14-8.8,25.9-11.33,42.11-39.41,42.11-77.06,0-10.42-1.38-21.13-4.26-31.27,10.44,4.11,21.81,10.25,34.41,19.71,22.7,16.93,32.2,38.82,32.2,66.05Z"/>
        <path class="cls-1" d="M267.08,82.11c0,18.16-16.5,39.62-46.22,39.62-12.11,0-23.25-6.32-34.45-12.11-9.74-6.36-21.7-10.18-36.14-10.18-37.16,0-65.23,32.62-65.23,80.1,0,11.35,1.06,21.57,3.03,30.69-9.78-3.52-18.82-8.06-27.38-14.19-23.95-16.5-35.51-40.45-35.51-68.51,0-23.21,6.79-43.59,20.79-60.69,22.7-22.61,51.54-37.08,87.22-41.24V8.34c0-4.6,3.73-8.34,8.34-8.34h9.21c4.6,0,8.34,3.73,8.34,8.34v16.29c11.41.59,22.44,2.12,32.81,4.41,28.59,7.47,54.22,23.48,73.94,45.67.81,2.46,1.25,4.94,1.25,7.4Z"/>
      </g>
      <g>
        <path class="cls-7" d="M478.99,79.58c-4.55,0-8.48-.98-11.81-2.94s-5.89-4.69-7.69-8.2c-1.8-3.5-2.7-7.58-2.7-12.24s.9-8.81,2.7-12.32c1.8-3.5,4.36-6.24,7.69-8.2,3.33-1.96,7.26-2.94,11.81-2.94s8.52.98,11.83,2.94c3.31,1.96,5.87,4.7,7.67,8.2,1.8,3.51,2.7,7.61,2.7,12.32s-.9,8.73-2.7,12.24c-1.8,3.51-4.36,6.24-7.67,8.2-3.31,1.96-7.26,2.94-11.83,2.94ZM478.99,70.01c2.16,0,3.98-.6,5.44-1.81,1.46-1.2,2.56-2.86,3.29-4.95s1.09-4.46,1.09-7.08-.36-5.06-1.09-7.14c-.73-2.08-1.83-3.72-3.29-4.91-1.46-1.19-3.28-1.79-5.44-1.79s-3.97.59-5.42,1.79c-1.45,1.19-2.54,2.83-3.27,4.91s-1.1,4.46-1.1,7.14.37,4.99,1.1,7.08c.73,2.1,1.82,3.75,3.27,4.95,1.45,1.21,3.25,1.81,5.42,1.81Z"/>
        <path class="cls-7" d="M506.35,95.65v-62.34h11.97v7.63h.57c.57-1.19,1.37-2.42,2.42-3.69,1.04-1.27,2.41-2.34,4.12-3.21,1.71-.87,3.84-1.3,6.41-1.3,3.36,0,6.43.86,9.21,2.6,2.79,1.73,5.01,4.33,6.68,7.79,1.67,3.46,2.5,7.78,2.5,12.95s-.81,9.29-2.43,12.77c-1.62,3.47-3.83,6.11-6.62,7.91-2.79,1.8-5.92,2.7-9.42,2.7-2.46,0-4.55-.42-6.25-1.26-1.71-.84-3.09-1.87-4.16-3.1s-1.89-2.46-2.46-3.67h-.36v24.23h-12.18ZM528.02,69.68c2.11,0,3.89-.58,5.34-1.75,1.45-1.16,2.54-2.77,3.29-4.83.74-2.05,1.12-4.41,1.12-7.06s-.37-4.99-1.12-7.02-1.83-3.63-3.27-4.79c-1.44-1.16-3.22-1.75-5.36-1.75s-3.85.56-5.32,1.68-2.57,2.69-3.33,4.71c-.76,2.02-1.14,4.4-1.14,7.16s.38,5.12,1.16,7.16c.77,2.04,1.89,3.63,3.35,4.77,1.46,1.14,3.22,1.7,5.27,1.7Z"/>
        <path class="cls-7" d="M575.91,79.58c-4.63,0-8.62-.95-11.97-2.84-3.36-1.89-5.93-4.58-7.73-8.08s-2.7-7.63-2.7-12.42.89-8.78,2.68-12.3c1.79-3.52,4.32-6.27,7.59-8.24,3.27-1.97,7.11-2.96,11.53-2.96,2.97,0,5.75.47,8.32,1.42,2.57.95,4.83,2.38,6.78,4.28,1.95,1.91,3.47,4.3,4.57,7.16,1.09,2.87,1.64,6.25,1.64,10.15v3.41h-38.11v-7.63h32.14l-5.68,2.03c0-2.35-.36-4.4-1.07-6.15-.72-1.75-1.79-3.1-3.21-4.06s-3.17-1.44-5.26-1.44-3.9.49-5.38,1.46c-1.48.97-2.59,2.29-3.35,3.96-.76,1.67-1.14,3.57-1.14,5.7v5.4c0,2.63.44,4.83,1.32,6.62.88,1.78,2.11,3.12,3.69,4.02s3.43,1.34,5.54,1.34c1.44,0,2.73-.2,3.9-.61,1.16-.41,2.16-1.01,2.98-1.81.82-.8,1.45-1.78,1.89-2.94l11.04,2.07c-.73,2.49-2,4.68-3.82,6.55-1.81,1.88-4.08,3.34-6.8,4.36-2.72,1.03-5.85,1.54-9.39,1.54Z"/>
        <path class="cls-7" d="M613.78,52.43v26.26h-12.18v-45.37h11.49l.2,11.32h-.73c1.19-3.79,3-6.72,5.42-8.79,2.42-2.07,5.55-3.1,9.39-3.1,3.14,0,5.88.68,8.22,2.05,2.34,1.37,4.15,3.33,5.44,5.88,1.29,2.56,1.93,5.61,1.93,9.15v28.86h-12.17v-26.75c0-2.81-.73-5.02-2.17-6.62-1.45-1.6-3.46-2.39-6.03-2.39-1.7,0-3.23.37-4.56,1.12-1.34.74-2.38,1.82-3.13,3.23s-1.12,3.12-1.12,5.15Z"/>
        <path class="cls-7" d="M476.72,165.14c-3.65,0-6.89-.52-9.7-1.56-2.81-1.04-5.11-2.56-6.9-4.55-1.79-1.99-2.94-4.39-3.45-7.21l11.32-1.95c.6,2.11,1.64,3.69,3.13,4.75,1.49,1.06,3.48,1.58,5.97,1.58,2.33,0,4.16-.44,5.5-1.32,1.34-.88,2.01-2,2.01-3.35,0-1.19-.48-2.16-1.44-2.92-.96-.76-2.43-1.34-4.4-1.75l-7.84-1.62c-4.38-.89-7.66-2.41-9.82-4.56-2.17-2.15-3.25-4.92-3.25-8.3,0-2.92.8-5.43,2.4-7.53,1.6-2.1,3.82-3.71,6.66-4.85,2.84-1.14,6.18-1.7,10.02-1.7,3.57,0,6.67.49,9.29,1.48,2.63.99,4.75,2.39,6.37,4.2,1.62,1.81,2.71,3.95,3.25,6.41l-10.8,1.91c-.46-1.54-1.35-2.81-2.66-3.79-1.31-.99-3.08-1.48-5.3-1.48-2,0-3.68.42-5.03,1.26-1.36.84-2.03,1.96-2.03,3.37,0,1.14.44,2.1,1.32,2.88.88.78,2.39,1.39,4.53,1.83l8.16,1.62c4.38.89,7.64,2.35,9.78,4.36,2.14,2.02,3.21,4.65,3.21,7.89,0,2.98-.86,5.58-2.6,7.81-1.73,2.23-4.12,3.97-7.16,5.21s-6.55,1.87-10.53,1.87Z"/>
        <path class="cls-7" d="M522.21,165.14c-4.55,0-8.48-.98-11.81-2.94s-5.89-4.69-7.69-8.2c-1.8-3.5-2.7-7.58-2.7-12.24s.9-8.81,2.7-12.32c1.8-3.5,4.36-6.24,7.69-8.2,3.33-1.96,7.26-2.94,11.81-2.94s8.52.98,11.83,2.94c3.31,1.96,5.87,4.7,7.67,8.2,1.8,3.51,2.7,7.61,2.7,12.32s-.9,8.73-2.7,12.24c-1.8,3.51-4.36,6.24-7.67,8.2-3.31,1.96-7.26,2.94-11.83,2.94ZM522.21,155.56c2.16,0,3.98-.6,5.44-1.81,1.46-1.2,2.56-2.86,3.29-4.95s1.09-4.46,1.09-7.08-.36-5.06-1.09-7.14-1.83-3.72-3.29-4.91c-1.46-1.19-3.28-1.79-5.44-1.79s-3.97.59-5.42,1.79c-1.45,1.19-2.54,2.83-3.27,4.91s-1.1,4.46-1.1,7.14.37,4.99,1.1,7.08,1.82,3.75,3.27,4.95c1.45,1.21,3.25,1.81,5.42,1.81Z"/>
        <path class="cls-7" d="M565.2,164.81c-3.14,0-5.89-.68-8.24-2.05-2.35-1.37-4.17-3.33-5.46-5.88-1.29-2.56-1.93-5.61-1.93-9.15v-28.85h12.18v26.75c0,2.81.73,5.02,2.19,6.62,1.46,1.6,3.46,2.39,6,2.39,1.73,0,3.26-.37,4.59-1.12,1.32-.74,2.36-1.83,3.11-3.25.74-1.42,1.12-3.13,1.12-5.13v-26.26h12.22v45.37h-11.53l-.16-11.32h.69c-1.19,3.82-3.01,6.75-5.46,8.81-2.45,2.06-5.55,3.09-9.31,3.09Z"/>
        <path class="cls-7" d="M597.99,164.25v-45.37h11.77v7.91h.49c.84-2.81,2.24-4.94,4.2-6.37,1.96-1.43,4.22-2.15,6.76-2.15.62,0,1.3.03,2.03.1s1.37.17,1.91.3v10.88c-.54-.19-1.33-.34-2.35-.45-1.03-.11-2-.16-2.92-.16-1.84,0-3.5.4-4.99,1.2-1.49.8-2.64,1.91-3.47,3.33-.83,1.42-1.24,3.08-1.24,4.97v25.81h-12.18Z"/>
        <path class="cls-7" d="M646.78,165.14c-4.57,0-8.52-.98-11.83-2.94s-5.87-4.69-7.67-8.2c-1.8-3.5-2.7-7.58-2.7-12.24s.9-8.81,2.7-12.32c1.8-3.5,4.36-6.24,7.67-8.2,3.31-1.96,7.26-2.94,11.83-2.94,2.68,0,5.15.35,7.43,1.05,2.27.7,4.29,1.71,6.05,3,1.76,1.3,3.21,2.88,4.34,4.75,1.14,1.87,1.92,3.97,2.35,6.29l-11.32,2.11c-.24-1.19-.62-2.25-1.14-3.19-.51-.93-1.14-1.73-1.87-2.39s-1.58-1.17-2.54-1.52c-.96-.35-2.02-.53-3.19-.53-2.17,0-3.98.58-5.46,1.75-1.48,1.16-2.58,2.79-3.33,4.87-.74,2.09-1.12,4.49-1.12,7.23s.37,5.06,1.12,7.14c.75,2.08,1.85,3.72,3.33,4.91,1.47,1.19,3.29,1.79,5.46,1.79,1.16,0,2.23-.18,3.21-.55.97-.36,1.84-.89,2.6-1.58.76-.69,1.39-1.52,1.91-2.5.51-.97.88-2.07,1.1-3.29l11.32,2.07c-.43,2.41-1.22,4.55-2.35,6.43-1.14,1.88-2.58,3.5-4.34,4.85-1.76,1.36-3.78,2.38-6.07,3.09-2.28.7-4.78,1.06-7.49,1.06Z"/>
        <path class="cls-7" d="M692.57,165.14c-4.63,0-8.62-.95-11.97-2.84-3.36-1.89-5.93-4.58-7.73-8.08s-2.7-7.63-2.7-12.42.89-8.78,2.68-12.3c1.79-3.52,4.32-6.27,7.59-8.24s7.11-2.96,11.53-2.96c2.97,0,5.75.47,8.32,1.42,2.57.95,4.83,2.38,6.78,4.28,1.95,1.91,3.47,4.3,4.57,7.16,1.09,2.87,1.64,6.25,1.64,10.15v3.41h-38.11v-7.63h32.14l-5.68,2.03c0-2.35-.36-4.4-1.07-6.15-.72-1.75-1.79-3.1-3.21-4.06s-3.17-1.44-5.26-1.44-3.9.49-5.38,1.46c-1.48.97-2.59,2.29-3.35,3.96-.76,1.67-1.14,3.57-1.14,5.7v5.4c0,2.63.44,4.83,1.32,6.62.88,1.78,2.11,3.12,3.69,4.02s3.43,1.34,5.54,1.34c1.44,0,2.73-.2,3.9-.61,1.16-.41,2.16-1.01,2.98-1.81.82-.8,1.45-1.78,1.89-2.94l11.04,2.07c-.73,2.49-2,4.68-3.82,6.55-1.81,1.88-4.08,3.34-6.8,4.36-2.72,1.03-5.85,1.54-9.39,1.54Z"/>
        <path class="cls-7" d="M458.69,249.8v-45.37h11.28l.61,11.28h-.89c.7-2.79,1.74-5.06,3.1-6.82,1.37-1.76,2.97-3.06,4.81-3.9,1.84-.84,3.77-1.26,5.81-1.26,3.27,0,5.91,1.04,7.91,3.11s3.48,5.27,4.42,9.6h-1.42c.67-2.89,1.78-5.28,3.31-7.16,1.53-1.88,3.34-3.27,5.44-4.18,2.1-.91,4.3-1.36,6.6-1.36,2.79,0,5.27.61,7.45,1.83,2.18,1.22,3.9,2.97,5.16,5.26,1.26,2.29,1.89,5.08,1.89,8.38v30.6h-12.18v-28.29c0-2.57-.7-4.48-2.09-5.72-1.39-1.24-3.11-1.87-5.13-1.87-1.52,0-2.83.33-3.96,1s-1.99,1.59-2.6,2.78c-.61,1.19-.91,2.58-.91,4.18v27.92h-11.77v-28.61c0-2.22-.66-3.99-1.97-5.3-1.31-1.31-3.01-1.97-5.09-1.97-1.44,0-2.73.33-3.88.98-1.15.65-2.05,1.6-2.72,2.86s-.99,2.79-.99,4.61v27.44h-12.18Z"/>
        <path class="cls-7" d="M543.89,250.7c-2.87,0-5.44-.51-7.73-1.52-2.28-1.01-4.08-2.53-5.4-4.54-1.31-2.02-1.97-4.53-1.97-7.53,0-2.51.47-4.63,1.4-6.33.93-1.71,2.21-3.07,3.82-4.1,1.61-1.03,3.44-1.81,5.48-2.35,2.04-.54,4.18-.92,6.43-1.14,2.63-.27,4.74-.52,6.35-.75,1.61-.23,2.79-.59,3.53-1.09.75-.5,1.12-1.24,1.12-2.21v-.2c0-1.3-.27-2.39-.81-3.29-.54-.89-1.35-1.58-2.41-2.05s-2.36-.71-3.87-.71-2.94.24-4.1.71c-1.16.47-2.11,1.1-2.84,1.89s-1.27,1.66-1.62,2.64l-11.16-1.83c.78-2.65,2.08-4.9,3.9-6.74,1.81-1.84,4.07-3.25,6.76-4.22,2.69-.98,5.73-1.46,9.11-1.46,2.44,0,4.8.29,7.1.87,2.3.58,4.36,1.48,6.19,2.7s3.27,2.81,4.34,4.77c1.07,1.96,1.6,4.31,1.6,7.04v30.56h-11.53v-6.29h-.41c-.73,1.41-1.7,2.65-2.92,3.71-1.22,1.07-2.68,1.91-4.4,2.54-1.72.62-3.7.93-5.95.93ZM547.34,242.13c1.92,0,3.6-.38,5.05-1.14,1.45-.76,2.58-1.79,3.39-3.09.81-1.3,1.22-2.75,1.22-4.34v-4.91c-.35.27-.89.51-1.62.73s-1.54.41-2.43.57-1.77.31-2.64.45c-.86.14-1.64.25-2.31.33-1.49.22-2.8.57-3.94,1.06-1.14.49-2.02,1.13-2.64,1.93s-.93,1.82-.93,3.06c0,1.16.3,2.14.89,2.94.59.8,1.4,1.4,2.43,1.81,1.03.41,2.2.61,3.53.61Z"/>
        <path class="cls-7" d="M582.24,198.5c-1.84,0-3.41-.61-4.71-1.83s-1.95-2.69-1.95-4.42.65-3.21,1.95-4.42c1.3-1.22,2.87-1.83,4.71-1.83s3.42.61,4.73,1.83c1.31,1.22,1.97,2.69,1.97,4.42s-.66,3.21-1.97,4.42-2.89,1.83-4.73,1.83ZM576.16,249.8v-45.37h12.18v45.37h-12.18Z"/>
        <path class="cls-7" d="M607.53,223.54v26.26h-12.18v-45.37h11.49l.2,11.32h-.73c1.19-3.79,3-6.72,5.42-8.79,2.42-2.07,5.55-3.1,9.39-3.1,3.14,0,5.88.68,8.22,2.05,2.34,1.37,4.15,3.33,5.44,5.88,1.29,2.56,1.93,5.61,1.93,9.15v28.86h-12.17v-26.75c0-2.81-.73-5.02-2.17-6.62-1.45-1.6-3.46-2.39-6.03-2.39-1.7,0-3.23.37-4.56,1.12-1.34.74-2.38,1.82-3.13,3.23s-1.12,3.12-1.12,5.15Z"/>
        <path class="cls-7" d="M666.31,204.43v9.29h-26.91v-9.29h26.91ZM645.65,193.63h12.18v42.9c0,1.44.32,2.5.95,3.19.64.69,1.7,1.04,3.19,1.04.46,0,1.11-.06,1.95-.18.84-.12,1.47-.23,1.91-.34l1.75,9.13c-1.35.41-2.7.69-4.04.85-1.34.16-2.62.25-3.84.25-4.55,0-8.02-1.11-10.43-3.33-2.41-2.22-3.61-5.4-3.61-9.54v-43.95Z"/>
        <path class="cls-7" d="M690.58,250.7c-4.63,0-8.62-.95-11.97-2.84-3.36-1.89-5.93-4.58-7.73-8.08s-2.7-7.63-2.7-12.42.89-8.78,2.68-12.3c1.79-3.52,4.32-6.27,7.59-8.24,3.27-1.97,7.11-2.96,11.53-2.96,2.97,0,5.75.47,8.32,1.42,2.57.95,4.83,2.38,6.78,4.28,1.95,1.91,3.47,4.3,4.57,7.16,1.09,2.87,1.64,6.25,1.64,10.15v3.41h-38.11v-7.63h32.14l-5.68,2.03c0-2.35-.36-4.4-1.07-6.15-.72-1.75-1.79-3.1-3.21-4.06s-3.17-1.44-5.26-1.44-3.9.49-5.38,1.46c-1.48.97-2.59,2.29-3.35,3.96-.76,1.67-1.14,3.57-1.14,5.7v5.4c0,2.63.44,4.83,1.32,6.62.88,1.78,2.11,3.12,3.69,4.02s3.43,1.34,5.54,1.34c1.44,0,2.73-.2,3.9-.61,1.16-.41,2.16-1.01,2.98-1.81.82-.8,1.45-1.78,1.89-2.94l11.04,2.07c-.73,2.49-2,4.68-3.82,6.55-1.81,1.88-4.08,3.34-6.8,4.36-2.72,1.03-5.85,1.54-9.39,1.54Z"/>
        <path class="cls-7" d="M728.45,223.54v26.26h-12.18v-45.37h11.49l.2,11.32h-.73c1.19-3.79,3-6.72,5.42-8.79,2.42-2.07,5.55-3.1,9.39-3.1,3.14,0,5.88.68,8.22,2.05,2.34,1.37,4.15,3.33,5.44,5.88,1.29,2.56,1.93,5.61,1.93,9.15v28.86h-12.17v-26.75c0-2.81-.73-5.02-2.17-6.62-1.45-1.6-3.46-2.39-6.03-2.39-1.7,0-3.23.37-4.56,1.12-1.34.74-2.38,1.82-3.13,3.23s-1.12,3.12-1.12,5.15Z"/>
        <path class="cls-7" d="M777.36,250.7c-2.87,0-5.44-.51-7.73-1.52-2.28-1.01-4.08-2.53-5.4-4.54-1.31-2.02-1.97-4.53-1.97-7.53,0-2.51.47-4.63,1.4-6.33.93-1.71,2.21-3.07,3.82-4.1,1.61-1.03,3.44-1.81,5.48-2.35,2.04-.54,4.18-.92,6.43-1.14,2.63-.27,4.74-.52,6.35-.75,1.61-.23,2.79-.59,3.53-1.09.75-.5,1.12-1.24,1.12-2.21v-.2c0-1.3-.27-2.39-.81-3.29-.54-.89-1.35-1.58-2.41-2.05s-2.36-.71-3.87-.71-2.94.24-4.1.71c-1.16.47-2.11,1.1-2.84,1.89s-1.27,1.66-1.62,2.64l-11.16-1.83c.78-2.65,2.08-4.9,3.9-6.74,1.81-1.84,4.07-3.25,6.76-4.22,2.69-.98,5.73-1.46,9.11-1.46,2.44,0,4.8.29,7.1.87,2.3.58,4.36,1.48,6.19,2.7s3.27,2.81,4.34,4.77c1.07,1.96,1.6,4.31,1.6,7.04v30.56h-11.53v-6.29h-.41c-.73,1.41-1.7,2.65-2.92,3.71-1.22,1.07-2.68,1.91-4.4,2.54-1.72.62-3.7.93-5.95.93ZM780.81,242.13c1.92,0,3.6-.38,5.05-1.14,1.45-.76,2.58-1.79,3.39-3.09.81-1.3,1.22-2.75,1.22-4.34v-4.91c-.35.27-.89.51-1.62.73s-1.54.41-2.43.57-1.77.31-2.64.45c-.86.14-1.64.25-2.31.33-1.49.22-2.8.57-3.94,1.06-1.14.49-2.02,1.13-2.64,1.93s-.93,1.82-.93,3.06c0,1.16.3,2.14.89,2.94.59.8,1.4,1.4,2.43,1.81,1.03.41,2.2.61,3.53.61Z"/>
        <path class="cls-7" d="M821.8,223.54v26.26h-12.18v-45.37h11.49l.2,11.32h-.73c1.19-3.79,3-6.72,5.42-8.79,2.42-2.07,5.55-3.1,9.39-3.1,3.14,0,5.88.68,8.22,2.05,2.34,1.37,4.15,3.33,5.44,5.88,1.29,2.56,1.93,5.61,1.93,9.15v28.86h-12.17v-26.75c0-2.81-.73-5.02-2.17-6.62-1.45-1.6-3.46-2.39-6.03-2.39-1.7,0-3.23.37-4.56,1.12-1.34.74-2.38,1.82-3.13,3.23s-1.12,3.12-1.12,5.15Z"/>
        <path class="cls-7" d="M878.34,250.7c-4.57,0-8.52-.98-11.83-2.94-3.31-1.96-5.87-4.69-7.67-8.2-1.8-3.5-2.7-7.58-2.7-12.24s.9-8.81,2.7-12.32c1.8-3.5,4.36-6.24,7.67-8.2,3.31-1.96,7.26-2.94,11.83-2.94,2.68,0,5.15.35,7.43,1.05,2.27.7,4.29,1.71,6.05,3,1.76,1.3,3.21,2.88,4.34,4.75,1.14,1.87,1.92,3.97,2.35,6.29l-11.32,2.11c-.24-1.19-.62-2.25-1.14-3.19-.51-.93-1.14-1.73-1.87-2.39s-1.58-1.17-2.54-1.52c-.96-.35-2.02-.53-3.19-.53-2.17,0-3.98.58-5.46,1.75-1.48,1.16-2.58,2.79-3.33,4.87-.74,2.09-1.12,4.49-1.12,7.23s.37,5.06,1.12,7.14c.75,2.08,1.85,3.72,3.33,4.91,1.47,1.19,3.29,1.79,5.46,1.79,1.16,0,2.23-.18,3.21-.55.97-.36,1.84-.89,2.6-1.58.76-.69,1.39-1.52,1.91-2.5.51-.97.88-2.07,1.1-3.29l11.32,2.07c-.43,2.41-1.22,4.55-2.35,6.43-1.14,1.88-2.58,3.5-4.34,4.85-1.76,1.36-3.78,2.38-6.07,3.09-2.28.7-4.78,1.06-7.49,1.06Z"/>
        <path class="cls-7" d="M924.12,250.7c-4.63,0-8.62-.95-11.97-2.84-3.36-1.89-5.93-4.58-7.73-8.08-1.8-3.49-2.7-7.63-2.7-12.42s.89-8.78,2.68-12.3c1.79-3.52,4.32-6.27,7.59-8.24,3.27-1.97,7.11-2.96,11.53-2.96,2.97,0,5.75.47,8.32,1.42,2.57.95,4.83,2.38,6.78,4.28,1.95,1.91,3.47,4.3,4.57,7.16,1.09,2.87,1.64,6.25,1.64,10.15v3.41h-38.11v-7.63h32.14l-5.68,2.03c0-2.35-.36-4.4-1.07-6.15-.72-1.75-1.79-3.1-3.21-4.06s-3.17-1.44-5.26-1.44-3.9.49-5.38,1.46c-1.48.97-2.59,2.29-3.35,3.96-.76,1.67-1.14,3.57-1.14,5.7v5.4c0,2.63.44,4.83,1.32,6.62.88,1.78,2.11,3.12,3.69,4.02s3.43,1.34,5.54,1.34c1.44,0,2.73-.2,3.9-.61,1.16-.41,2.16-1.01,2.98-1.81.82-.8,1.45-1.78,1.89-2.94l11.04,2.07c-.73,2.49-2,4.68-3.82,6.55-1.81,1.88-4.08,3.34-6.8,4.36-2.72,1.03-5.85,1.54-9.39,1.54Z"/>
        <path class="cls-7" d="M483.94,289.99v9.29h-29.63v-9.29h29.63ZM462.31,335.36v-48.86c0-3.22.64-5.9,1.93-8.04s3.04-3.74,5.26-4.81,4.73-1.6,7.55-1.6c1.92,0,3.67.15,5.26.47,1.58.31,2.74.58,3.47.79l-2.19,9.17c-.51-.13-1.12-.27-1.8-.41-.69-.13-1.44-.2-2.25-.2-1.84,0-3.14.44-3.92,1.32-.77.88-1.16,2.12-1.16,3.71v48.46h-12.14Z"/>
        <path class="cls-7" d="M507.16,336.25c-4.63,0-8.62-.95-11.97-2.84-3.36-1.89-5.93-4.58-7.73-8.08s-2.7-7.63-2.7-12.42.89-8.78,2.68-12.3c1.79-3.52,4.32-6.27,7.59-8.24,3.27-1.97,7.11-2.96,11.53-2.96,2.97,0,5.75.47,8.32,1.42,2.57.95,4.83,2.38,6.78,4.28,1.95,1.91,3.47,4.3,4.57,7.16,1.09,2.87,1.64,6.25,1.64,10.15v3.41h-38.11v-7.63h32.14l-5.68,2.03c0-2.35-.36-4.4-1.07-6.15-.72-1.75-1.79-3.1-3.21-4.06s-3.17-1.44-5.26-1.44-3.9.49-5.38,1.46c-1.48.97-2.59,2.29-3.35,3.96-.76,1.67-1.14,3.57-1.14,5.7v5.4c0,2.63.44,4.83,1.32,6.62.88,1.78,2.11,3.12,3.69,4.02s3.43,1.34,5.54,1.34c1.44,0,2.73-.2,3.9-.61,1.16-.41,2.16-1.01,2.98-1.81.82-.8,1.45-1.78,1.89-2.94l11.04,2.07c-.73,2.49-2,4.68-3.82,6.55-1.81,1.88-4.08,3.34-6.8,4.36-2.72,1.03-5.85,1.54-9.39,1.54Z"/>
        <path class="cls-7" d="M553.35,336.25c-4.63,0-8.62-.95-11.97-2.84-3.36-1.89-5.93-4.58-7.73-8.08s-2.7-7.63-2.7-12.42.89-8.78,2.68-12.3c1.79-3.52,4.32-6.27,7.59-8.24,3.27-1.97,7.11-2.96,11.53-2.96,2.97,0,5.75.47,8.32,1.42,2.57.95,4.83,2.38,6.78,4.28,1.95,1.91,3.47,4.3,4.57,7.16,1.09,2.87,1.64,6.25,1.64,10.15v3.41h-38.11v-7.63h32.14l-5.68,2.03c0-2.35-.36-4.4-1.07-6.15-.72-1.75-1.79-3.1-3.21-4.06s-3.17-1.44-5.26-1.44-3.9.49-5.38,1.46c-1.48.97-2.59,2.29-3.35,3.96-.76,1.67-1.14,3.57-1.14,5.7v5.4c0,2.63.44,4.83,1.32,6.62.88,1.78,2.11,3.12,3.69,4.02s3.43,1.34,5.54,1.34c1.44,0,2.73-.2,3.9-.61,1.16-.41,2.16-1.01,2.98-1.81.82-.8,1.45-1.78,1.89-2.94l11.04,2.07c-.73,2.49-2,4.68-3.82,6.55-1.81,1.88-4.08,3.34-6.8,4.36-2.72,1.03-5.85,1.54-9.39,1.54Z"/>
      </g>
      <rect class="cls-7" x="376.31" y="24.5" width="8" height="320"/>
    </g>
  </g>
</svg>