<?xml version="1.0" encoding="UTF-8"?>
<svg id="Layer_2" data-name="Layer 2" xmlns="http://www.w3.org/2000/svg" xmlns:xlink="http://www.w3.org/1999/xlink" viewBox="0 0 730 730">
  <defs>
    <style>
      .cls-1 {
        fill: #303b29;
      }

      .cls-2 {
        fill: url(#linear-gradient-5);
      }

      .cls-3 {
        fill: url(#linear-gradient-4);
      }

      .cls-4 {
        fill: url(#linear-gradient-3);
      }

      .cls-5 {
        fill: url(#linear-gradient-2);
      }

      .cls-6 {
        fill: #658b2c;
      }

      .cls-7 {
        fill: url(#linear-gradient);
      }

      .cls-8 {
        fill: #f2f2f2;
      }
    </style>
    <linearGradient id="linear-gradient" x1="430.31" y1="406.48" x2="667.6" y2="199.22" gradientUnits="userSpaceOnUse">
      <stop offset="0" stop-color="#37660d"/>
      <stop offset=".24" stop-color="#436f1b"/>
      <stop offset=".69" stop-color="#638842"/>
      <stop offset="1" stop-color="#7c9c60"/>
    </linearGradient>
    <linearGradient id="linear-gradient-2" x1="359.61" y1="325.55" x2="596.94" y2="118.25" xlink:href="#linear-gradient"/>
    <linearGradient id="linear-gradient-3" x1="454.36" y1="186.66" x2="569.62" y2="292.24" gradientUnits="userSpaceOnUse">
      <stop offset="0" stop-color="#37660d"/>
      <stop offset="1" stop-color="#c9ff30"/>
    </linearGradient>
    <linearGradient id="linear-gradient-4" x1="453.07" y1="419.04" x2="657.18" y2="149.18" xlink:href="#linear-gradient-3"/>
    <linearGradient id="linear-gradient-5" x1="359.94" y1="348.6" x2="564.05" y2="78.74" xlink:href="#linear-gradient-3"/>
  </defs>
  <g id="Layer_1-2" data-name="Layer 1">
    <g>
      <rect class="cls-8" width="730" height="730"/>
      <g>
        <path class="cls-6" d="M628.31,136.94c-20.32-22.85-46.71-39.34-76.15-47.03-10.68-2.36-22.04-3.91-33.79-4.54v-16.78c0-4.74-3.84-8.58-8.59-8.58h-9.48c-4.74,0-8.59,3.84-8.59,8.58v17.78c.76-.09,1.55-.15,2.34-.24-37.81,3.93-68.29,18.92-92.17,42.71-3.12,3.12-6.16,6.36-9.07,9.76-24.66,28.92-38.27,70.58-38.27,118.2,0,31.96,9.24,61.45,25.12,86.11,24.58,38.21,65.12,64.75,112.04,70.71v17.8c0,4.74,3.84,8.58,8.59,8.58h9.48c4.74,0,8.59-3.84,8.59-8.58v-16.78c5.4-.22,10.62-.59,15.62-1.16.15-.02.33-.04.5-.07.92-.11,1.81-.24,2.71-.37,34.12-5.09,64.18-20.47,87.03-43.84,28.49-29.14,45.77-70.64,45.77-120.08,0-44.21-15.97-83.27-41.68-112.19ZM538.2,329.34c-8.43,3.69-17.85,5.68-28.05,5.68-31.54,0-56.43-19.38-64.9-58.52,17.08,6.18,36.37,9.39,59.38,12.6,23.79,3.39,40.81,13.61,40.81,27.2,0,4.63-2.56,9.24-7.23,13.04ZM517.36,205.77c-22.94-4.24-32.31-13.59-32.31-25.49,0-11.05,13.61-17.02,31.48-17.02,10.49,0,20.27,4.61,29.99,9.63,15.49,10.14,25.45,26.63,30.65,44.89-23.44-9.2-42.31-8.52-59.81-12.01Z"/>
        <path class="cls-7" d="M670,249.13c0-44.21-15.97-83.27-41.69-112.2.84,2.54,1.3,5.08,1.3,7.62,0,18.7-17.01,40.81-47.62,40.81-12.47,0-23.93-6.52-35.48-12.48,15.5,10.14,25.47,26.63,30.66,44.89,10.75,4.23,22.46,10.53,35.43,20.29,23.38,17.43,33.16,39.97,33.16,68.02,0,21.43-6.49,44.05-21.54,63.09,28.48-29.13,45.78-70.65,45.78-120.06Z"/>
        <path class="cls-5" d="M424.69,314.6c26.36,0,40.82,23.81,82.48,23.81,13.87,0,24.53-3.76,31.04-9.07-8.43,3.69-17.84,5.67-28.06,5.67-31.54,0-56.43-19.36-64.89-58.5-10.08-3.64-19.38-8.31-28.22-14.62-24.66-17.01-36.56-41.66-36.56-70.57,0-23.9,6.99-44.88,21.42-62.48-3.13,3.12-6.18,6.35-9.08,9.77-24.66,28.91-38.27,70.57-38.27,118.19,0,31.96,9.26,61.45,25.12,86.11,4.56-16.87,26.13-28.3,45.02-28.3Z"/>
        <path class="cls-4" d="M442.13,244.89c0,11.69,1.1,22.22,3.13,31.62,17.08,6.17,36.37,9.38,59.36,12.59,23.81,3.4,40.81,13.6,40.81,27.21,0,4.62-2.55,9.22-7.23,13.03,26.67-11.67,43.37-40.59,43.37-79.35,0-10.74-1.43-21.76-4.4-32.2-23.43-9.21-42.32-8.52-59.81-12.02-22.96-4.25-32.31-13.6-32.31-25.5,0-11.05,13.61-17.01,31.46-17.01,10.49,0,20.27,4.62,29.99,9.63-10.02-6.56-22.35-10.48-37.22-10.48-38.26,0-67.17,33.58-67.17,82.47Z"/>
        <path class="cls-3" d="M645.77,306.1c0,21.43-6.49,44.06-21.54,63.11-22.85,23.37-52.91,38.75-87.03,43.84-.9.13-1.79.26-2.71.37-.17.02-.35.04-.5.07-5,.57-10.22.96-15.62,1.16v16.78c0,4.74-3.84,8.58-8.59,8.58h-9.48c-4.74,0-8.59-3.84-8.59-8.58v-17.8c-46.95-5.96-87.47-32.5-112.04-70.71,4.57-16.86,26.13-28.31,45.02-28.31,26.37,0,40.81,23.81,82.47,23.81,13.87,0,24.53-3.76,31.04-9.07,26.67-11.66,43.36-40.59,43.36-79.36,0-10.73-1.42-21.76-4.39-32.2,10.75,4.24,22.46,10.55,35.43,20.29,23.37,17.43,33.16,39.97,33.16,68.02Z"/>
        <path class="cls-2" d="M629.6,144.56c0,18.7-17,40.8-47.6,40.8-12.47,0-23.94-6.51-35.48-12.47-10.03-6.55-22.35-10.49-37.22-10.49-38.27,0-67.17,33.6-67.17,82.48,0,11.69,1.09,22.22,3.12,31.61-10.07-3.63-19.38-8.3-28.2-14.61-24.66-16.99-36.57-41.66-36.57-70.56,0-23.9,6.99-44.89,21.41-62.5,23.37-23.29,53.08-38.18,89.83-42.47v-17.78c0-4.74,3.84-8.58,8.59-8.58h9.48c4.74,0,8.59,3.84,8.59,8.58v16.78c11.75.61,23.11,2.18,33.79,4.54,29.45,7.69,55.84,24.18,76.15,47.03.83,2.53,1.29,5.09,1.29,7.62Z"/>
      </g>
      <g>
        <path class="cls-1" d="M85.41,405.66c-4.68,0-8.74-1.01-12.16-3.03s-6.07-4.83-7.92-8.44c-1.85-3.61-2.78-7.81-2.78-12.6s.93-9.07,2.78-12.68c1.85-3.61,4.49-6.42,7.92-8.44,3.43-2.02,7.48-3.03,12.16-3.03s8.77,1.01,12.18,3.03c3.41,2.02,6.05,4.84,7.9,8.44,1.85,3.61,2.78,7.84,2.78,12.68s-.93,8.99-2.78,12.6c-1.85,3.61-4.49,6.42-7.9,8.44-3.41,2.02-7.48,3.03-12.18,3.03ZM85.41,395.8c2.23,0,4.1-.62,5.6-1.86,1.5-1.24,2.63-2.94,3.38-5.1s1.13-4.59,1.13-7.29-.37-5.21-1.13-7.36-1.88-3.83-3.38-5.06c-1.5-1.23-3.37-1.84-5.6-1.84s-4.09.61-5.58,1.84c-1.49,1.23-2.61,2.91-3.36,5.06s-1.13,4.6-1.13,7.36.38,5.13,1.13,7.29,1.87,3.86,3.36,5.1c1.49,1.24,3.35,1.86,5.58,1.86Z"/>
        <path class="cls-1" d="M113.59,422.21v-64.2h12.33v7.86h.58c.58-1.23,1.41-2.49,2.49-3.8,1.07-1.31,2.49-2.41,4.24-3.3,1.76-.89,3.96-1.34,6.6-1.34,3.46,0,6.62.89,9.49,2.67,2.87,1.78,5.16,4.46,6.88,8.02,1.71,3.57,2.57,8.01,2.57,13.33s-.84,9.57-2.51,13.15c-1.67,3.58-3.95,6.3-6.81,8.15-2.87,1.85-6.1,2.78-9.7,2.78-2.54,0-4.68-.43-6.44-1.3-1.76-.86-3.19-1.93-4.29-3.2s-1.94-2.53-2.53-3.78h-.37v24.95h-12.54ZM135.91,395.46c2.17,0,4.01-.6,5.5-1.8,1.49-1.2,2.62-2.86,3.38-4.97.77-2.12,1.15-4.54,1.15-7.27s-.39-5.14-1.15-7.23-1.89-3.74-3.36-4.93c-1.48-1.2-3.32-1.8-5.52-1.8s-3.97.58-5.47,1.73-2.65,2.77-3.43,4.85c-.78,2.08-1.17,4.54-1.17,7.38s.4,5.27,1.19,7.38c.79,2.11,1.94,3.74,3.45,4.91,1.5,1.17,3.32,1.75,5.43,1.75Z"/>
        <path class="cls-1" d="M185.24,405.66c-4.77,0-8.88-.98-12.33-2.93-3.46-1.95-6.11-4.72-7.96-8.32s-2.78-7.86-2.78-12.79.92-9.04,2.76-12.66c1.84-3.62,4.45-6.45,7.82-8.49s7.33-3.05,11.87-3.05c3.06,0,5.92.49,8.57,1.46,2.65.98,4.97,2.45,6.98,4.41,2.01,1.96,3.57,4.42,4.7,7.38,1.13,2.95,1.69,6.44,1.69,10.45v3.51h-39.25v-7.86h33.1l-5.85,2.09c0-2.42-.37-4.54-1.11-6.33-.74-1.8-1.84-3.19-3.3-4.18-1.46-.99-3.27-1.48-5.41-1.48s-4.02.5-5.54,1.5c-1.52,1-2.67,2.36-3.45,4.07-.78,1.71-1.17,3.67-1.17,5.87v5.56c0,2.7.45,4.97,1.36,6.81.9,1.84,2.17,3.22,3.8,4.14s3.53,1.38,5.71,1.38c1.48,0,2.82-.21,4.01-.63,1.2-.42,2.22-1.04,3.07-1.86.85-.82,1.5-1.83,1.94-3.03l11.37,2.13c-.75,2.57-2.06,4.81-3.93,6.75-1.87,1.94-4.2,3.44-7,4.49-2.8,1.06-6.03,1.59-9.68,1.59Z"/>
        <path class="cls-1" d="M224.24,377.7v27.04h-12.54v-46.73h11.83l.21,11.66h-.75c1.23-3.9,3.09-6.92,5.58-9.05,2.49-2.13,5.72-3.2,9.68-3.2,3.23,0,6.05.7,8.47,2.11,2.41,1.41,4.28,3.43,5.6,6.06,1.32,2.63,1.99,5.77,1.99,9.43v29.72h-12.54v-27.54c0-2.9-.75-5.17-2.24-6.81-1.49-1.64-3.56-2.46-6.21-2.46-1.75,0-3.32.38-4.7,1.15-1.38.77-2.45,1.87-3.22,3.32s-1.15,3.22-1.15,5.31Z"/>
        <path class="cls-1" d="M83.07,493.78c-3.76,0-7.09-.54-9.99-1.61-2.9-1.07-5.27-2.63-7.1-4.68-1.84-2.05-3.03-4.52-3.55-7.42l11.66-2c.61,2.17,1.69,3.8,3.22,4.89,1.53,1.09,3.58,1.63,6.14,1.63,2.4,0,4.28-.45,5.66-1.36,1.38-.9,2.07-2.06,2.07-3.45,0-1.23-.49-2.23-1.48-3.01-.99-.78-2.5-1.38-4.53-1.8l-8.07-1.67c-4.51-.92-7.89-2.49-10.11-4.7-2.23-2.21-3.34-5.06-3.34-8.55,0-3.01.82-5.59,2.47-7.75,1.64-2.16,3.93-3.83,6.85-5,2.92-1.17,6.37-1.75,10.32-1.75,3.68,0,6.87.51,9.57,1.52,2.7,1.02,4.89,2.46,6.56,4.33,1.67,1.87,2.79,4.07,3.34,6.6l-11.12,1.96c-.47-1.59-1.39-2.89-2.74-3.91-1.35-1.02-3.17-1.52-5.46-1.52-2.06,0-3.79.43-5.18,1.29-1.4.86-2.09,2.02-2.09,3.47,0,1.17.45,2.16,1.36,2.97.91.81,2.46,1.44,4.66,1.88l8.4,1.67c4.51.92,7.87,2.42,10.07,4.49,2.2,2.08,3.3,4.79,3.3,8.13,0,3.07-.89,5.75-2.67,8.05-1.78,2.3-4.24,4.09-7.38,5.37s-6.75,1.92-10.84,1.92Z"/>
        <path class="cls-1" d="M129.93,493.78c-4.68,0-8.74-1.01-12.16-3.03s-6.07-4.83-7.92-8.44c-1.85-3.61-2.78-7.81-2.78-12.6s.93-9.07,2.78-12.68c1.85-3.61,4.49-6.42,7.92-8.44,3.43-2.02,7.48-3.03,12.16-3.03s8.77,1.01,12.18,3.03c3.41,2.02,6.05,4.84,7.9,8.44,1.85,3.61,2.78,7.84,2.78,12.68s-.93,8.99-2.78,12.6c-1.85,3.61-4.49,6.42-7.9,8.44-3.41,2.02-7.48,3.03-12.18,3.03ZM129.93,483.91c2.23,0,4.1-.62,5.6-1.86,1.5-1.24,2.63-2.94,3.38-5.1s1.13-4.59,1.13-7.29-.37-5.21-1.13-7.36-1.88-3.83-3.38-5.06c-1.5-1.23-3.37-1.84-5.6-1.84s-4.09.61-5.58,1.84c-1.49,1.23-2.61,2.91-3.36,5.06s-1.13,4.6-1.13,7.36.38,5.13,1.13,7.29,1.87,3.86,3.36,5.1c1.49,1.24,3.35,1.86,5.58,1.86Z"/>
        <path class="cls-1" d="M174.2,493.44c-3.23,0-6.06-.7-8.48-2.11-2.42-1.41-4.3-3.43-5.62-6.06-1.32-2.63-1.99-5.77-1.99-9.43v-29.72h12.54v27.54c0,2.9.75,5.17,2.26,6.81,1.5,1.64,3.57,2.46,6.18,2.46,1.78,0,3.36-.38,4.72-1.15,1.36-.77,2.43-1.88,3.2-3.34.77-1.46,1.15-3.23,1.15-5.29v-27.04h12.58v46.73h-11.87l-.17-11.66h.71c-1.23,3.93-3.1,6.95-5.62,9.07-2.52,2.12-5.72,3.18-9.59,3.18Z"/>
        <path class="cls-1" d="M207.98,492.86v-46.73h12.12v8.15h.5c.86-2.9,2.31-5.08,4.33-6.56,2.02-1.48,4.34-2.21,6.96-2.21.64,0,1.34.03,2.09.1s1.41.18,1.96.31v11.2c-.56-.19-1.37-.35-2.42-.46-1.06-.11-2.06-.16-3.01-.16-1.9,0-3.61.41-5.14,1.23-1.53.82-2.72,1.96-3.57,3.43-.85,1.46-1.27,3.17-1.27,5.12v26.58h-12.54Z"/>
        <path class="cls-1" d="M258.22,493.78c-4.71,0-8.77-1.01-12.18-3.03s-6.05-4.83-7.9-8.44c-1.85-3.61-2.78-7.81-2.78-12.6s.93-9.07,2.78-12.68c1.85-3.61,4.49-6.42,7.9-8.44,3.41-2.02,7.48-3.03,12.18-3.03,2.76,0,5.31.36,7.65,1.08,2.34.73,4.42,1.76,6.23,3.09,1.81,1.34,3.3,2.97,4.47,4.89,1.17,1.92,1.98,4.08,2.42,6.48l-11.66,2.17c-.25-1.23-.64-2.32-1.17-3.28-.53-.96-1.17-1.78-1.92-2.46s-1.62-1.2-2.61-1.57c-.99-.36-2.08-.54-3.28-.54-2.23,0-4.1.6-5.62,1.8-1.52,1.2-2.66,2.87-3.43,5.01-.77,2.15-1.15,4.63-1.15,7.44s.38,5.21,1.15,7.36c.77,2.15,1.91,3.83,3.43,5.06,1.52,1.23,3.39,1.84,5.62,1.84,1.2,0,2.3-.19,3.3-.57,1-.37,1.9-.92,2.67-1.63.78-.71,1.44-1.57,1.96-2.57.53-1,.91-2.13,1.13-3.38l11.66,2.13c-.45,2.48-1.25,4.69-2.42,6.63-1.17,1.94-2.66,3.6-4.47,4.99-1.81,1.4-3.9,2.45-6.25,3.18-2.35.73-4.92,1.09-7.71,1.09Z"/>
        <path class="cls-1" d="M305.37,493.78c-4.77,0-8.88-.98-12.33-2.93-3.46-1.95-6.11-4.72-7.96-8.32-1.85-3.59-2.78-7.86-2.78-12.79s.92-9.04,2.76-12.66c1.84-3.62,4.45-6.45,7.82-8.49s7.33-3.05,11.87-3.05c3.06,0,5.92.49,8.57,1.46,2.65.98,4.97,2.45,6.98,4.41,2.01,1.96,3.57,4.42,4.7,7.38,1.13,2.95,1.69,6.44,1.69,10.45v3.51h-39.25v-7.86h33.1l-5.85,2.09c0-2.42-.37-4.54-1.11-6.33-.74-1.8-1.84-3.19-3.3-4.18s-3.27-1.48-5.41-1.48-4.02.5-5.54,1.5c-1.52,1-2.67,2.36-3.45,4.07-.78,1.71-1.17,3.67-1.17,5.87v5.56c0,2.7.45,4.97,1.36,6.81.9,1.84,2.17,3.22,3.8,4.14,1.63.92,3.53,1.38,5.71,1.38,1.48,0,2.82-.21,4.01-.63,1.2-.42,2.22-1.04,3.07-1.86.85-.82,1.5-1.83,1.94-3.03l11.37,2.13c-.75,2.57-2.06,4.81-3.93,6.75-1.87,1.94-4.2,3.44-7,4.49-2.8,1.06-6.03,1.59-9.68,1.59Z"/>
        <path class="cls-1" d="M64.51,580.97v-46.73h11.62l.63,11.62h-.92c.72-2.87,1.79-5.21,3.2-7.02,1.41-1.81,3.06-3.15,4.95-4.01,1.9-.86,3.89-1.3,5.98-1.3,3.37,0,6.09,1.07,8.15,3.2s3.58,5.43,4.56,9.89h-1.46c.69-2.98,1.83-5.44,3.41-7.38,1.57-1.94,3.44-3.37,5.6-4.3,2.16-.93,4.42-1.4,6.79-1.4,2.87,0,5.43.63,7.67,1.88,2.24,1.25,4.01,3.06,5.31,5.41,1.29,2.36,1.94,5.23,1.94,8.63v31.52h-12.54v-29.13c0-2.65-.72-4.61-2.15-5.89-1.44-1.28-3.2-1.92-5.29-1.92-1.56,0-2.92.34-4.08,1.03s-2.05,1.64-2.67,2.86c-.63,1.23-.94,2.66-.94,4.3v28.76h-12.12v-29.47c0-2.29-.68-4.11-2.03-5.46-1.35-1.35-3.1-2.03-5.25-2.03-1.48,0-2.81.33-3.99,1-1.18.67-2.12,1.65-2.8,2.95s-1.02,2.88-1.02,4.74v28.26h-12.54Z"/>
        <path class="cls-1" d="M152.25,581.89c-2.95,0-5.61-.52-7.96-1.57-2.35-1.04-4.21-2.61-5.56-4.68-1.35-2.08-2.03-4.66-2.03-7.76,0-2.59.48-4.76,1.44-6.52.96-1.76,2.27-3.16,3.93-4.22,1.66-1.06,3.54-1.87,5.64-2.42,2.1-.56,4.31-.95,6.62-1.17,2.7-.28,4.88-.54,6.54-.77,1.66-.24,2.87-.61,3.63-1.13.77-.52,1.15-1.28,1.15-2.28v-.21c0-1.34-.28-2.46-.84-3.38-.56-.92-1.39-1.62-2.49-2.11s-2.43-.73-3.99-.73-3.03.24-4.22.73c-1.2.49-2.17,1.14-2.93,1.94s-1.31,1.71-1.67,2.72l-11.49-1.88c.81-2.73,2.15-5.04,4.01-6.94,1.87-1.9,4.19-3.34,6.96-4.35,2.77-1,5.9-1.5,9.38-1.5,2.51,0,4.95.3,7.32.9,2.37.6,4.49,1.52,6.37,2.78,1.88,1.25,3.37,2.89,4.47,4.91,1.1,2.02,1.65,4.44,1.65,7.25v31.47h-11.87v-6.48h-.42c-.75,1.45-1.75,2.73-3.01,3.83-1.25,1.1-2.77,1.97-4.54,2.61-1.77.64-3.81.96-6.12.96ZM155.81,573.07c1.98,0,3.71-.39,5.2-1.17,1.49-.78,2.65-1.84,3.49-3.18.83-1.34,1.25-2.83,1.25-4.47v-5.06c-.36.28-.92.53-1.67.75s-1.59.42-2.51.58-1.82.32-2.72.46c-.89.14-1.69.25-2.38.33-1.53.22-2.88.58-4.05,1.09-1.17.5-2.08,1.16-2.72,1.99s-.96,1.87-.96,3.16c0,1.2.31,2.21.92,3.03.61.82,1.45,1.44,2.51,1.86,1.06.42,2.27.63,3.64.63Z"/>
        <path class="cls-1" d="M191.75,528.13c-1.89,0-3.51-.62-4.85-1.88s-2.01-2.77-2.01-4.56.67-3.3,2.01-4.55c1.34-1.25,2.95-1.88,4.85-1.88s3.52.63,4.87,1.88c1.35,1.25,2.03,2.77,2.03,4.55s-.68,3.3-2.03,4.56-2.98,1.88-4.87,1.88ZM185.49,580.97v-46.73h12.54v46.73h-12.54Z"/>
        <path class="cls-1" d="M217.8,553.92v27.04h-12.54v-46.73h11.83l.21,11.66h-.75c1.23-3.9,3.09-6.92,5.58-9.05,2.49-2.13,5.72-3.2,9.68-3.2,3.23,0,6.05.7,8.47,2.11,2.41,1.41,4.28,3.43,5.6,6.06,1.32,2.63,1.99,5.77,1.99,9.43v29.72h-12.54v-27.54c0-2.9-.75-5.17-2.24-6.81-1.49-1.64-3.56-2.46-6.21-2.46-1.75,0-3.32.38-4.7,1.15-1.38.77-2.45,1.87-3.22,3.32s-1.15,3.22-1.15,5.31Z"/>
        <path class="cls-1" d="M278.33,534.24v9.57h-27.71v-9.57h27.71ZM257.05,523.12h12.54v44.18c0,1.48.33,2.57.98,3.28.65.71,1.75,1.07,3.28,1.07.47,0,1.14-.06,2.01-.19.86-.12,1.52-.24,1.96-.35l1.8,9.4c-1.39.42-2.78.71-4.16.88-1.38.17-2.7.25-3.95.25-4.68,0-8.26-1.14-10.74-3.43-2.48-2.28-3.72-5.56-3.72-9.82v-45.27Z"/>
        <path class="cls-1" d="M303.32,581.89c-4.77,0-8.88-.98-12.33-2.93-3.46-1.95-6.11-4.72-7.96-8.32s-2.78-7.86-2.78-12.79.92-9.04,2.76-12.66c1.84-3.62,4.45-6.45,7.82-8.49,3.37-2.03,7.33-3.05,11.87-3.05,3.06,0,5.92.49,8.57,1.46,2.65.98,4.97,2.45,6.98,4.41,2.01,1.96,3.57,4.42,4.7,7.38,1.13,2.95,1.69,6.44,1.69,10.45v3.51h-39.25v-7.86h33.1l-5.85,2.09c0-2.42-.37-4.54-1.11-6.33-.74-1.8-1.84-3.19-3.3-4.18s-3.27-1.48-5.41-1.48-4.02.5-5.54,1.5c-1.52,1-2.67,2.36-3.45,4.07-.78,1.71-1.17,3.67-1.17,5.87v5.56c0,2.7.45,4.97,1.36,6.81.9,1.84,2.17,3.22,3.8,4.14s3.53,1.38,5.71,1.38c1.48,0,2.82-.21,4.01-.63,1.2-.42,2.22-1.04,3.07-1.86.85-.82,1.5-1.83,1.94-3.03l11.37,2.13c-.75,2.57-2.06,4.81-3.93,6.75-1.87,1.94-4.2,3.44-7,4.49-2.8,1.06-6.03,1.59-9.68,1.59Z"/>
        <path class="cls-1" d="M342.33,553.92v27.04h-12.54v-46.73h11.83l.21,11.66h-.75c1.23-3.9,3.09-6.92,5.58-9.05,2.49-2.13,5.72-3.2,9.68-3.2,3.23,0,6.05.7,8.47,2.11,2.41,1.41,4.28,3.43,5.6,6.06,1.32,2.63,1.99,5.77,1.99,9.43v29.72h-12.54v-27.54c0-2.9-.75-5.17-2.24-6.81-1.49-1.64-3.56-2.46-6.21-2.46-1.75,0-3.32.38-4.7,1.15-1.38.77-2.45,1.87-3.22,3.32s-1.15,3.22-1.15,5.31Z"/>
        <path class="cls-1" d="M392.69,581.89c-2.95,0-5.61-.52-7.96-1.57-2.35-1.04-4.21-2.61-5.56-4.68-1.35-2.08-2.03-4.66-2.03-7.76,0-2.59.48-4.76,1.44-6.52.96-1.76,2.27-3.16,3.93-4.22,1.66-1.06,3.54-1.87,5.64-2.42,2.1-.56,4.31-.95,6.62-1.17,2.7-.28,4.88-.54,6.54-.77,1.66-.24,2.87-.61,3.63-1.13.77-.52,1.15-1.28,1.15-2.28v-.21c0-1.34-.28-2.46-.84-3.38-.56-.92-1.39-1.62-2.49-2.11s-2.43-.73-3.99-.73-3.03.24-4.22.73c-1.2.49-2.17,1.14-2.93,1.94s-1.31,1.71-1.67,2.72l-11.49-1.88c.81-2.73,2.15-5.04,4.01-6.94,1.87-1.9,4.19-3.34,6.96-4.35,2.77-1,5.9-1.5,9.38-1.5,2.51,0,4.95.3,7.32.9,2.37.6,4.49,1.52,6.37,2.78s3.37,2.89,4.47,4.91c1.1,2.02,1.65,4.44,1.65,7.25v31.47h-11.87v-6.48h-.42c-.75,1.45-1.75,2.73-3.01,3.83-1.25,1.1-2.77,1.97-4.54,2.61-1.77.64-3.81.96-6.12.96ZM396.25,573.07c1.98,0,3.71-.39,5.2-1.17,1.49-.78,2.65-1.84,3.49-3.18.83-1.34,1.25-2.83,1.25-4.47v-5.06c-.36.28-.92.53-1.67.75s-1.59.42-2.51.58-1.82.32-2.72.46c-.89.14-1.69.25-2.38.33-1.53.22-2.88.58-4.05,1.09-1.17.5-2.08,1.16-2.72,1.99s-.96,1.87-.96,3.16c0,1.2.31,2.21.92,3.03.61.82,1.45,1.44,2.51,1.86,1.06.42,2.27.63,3.64.63Z"/>
        <path class="cls-1" d="M438.47,553.92v27.04h-12.54v-46.73h11.83l.21,11.66h-.75c1.23-3.9,3.09-6.92,5.58-9.05,2.49-2.13,5.72-3.2,9.68-3.2,3.23,0,6.05.7,8.47,2.11,2.41,1.41,4.28,3.43,5.6,6.06,1.32,2.63,1.99,5.77,1.99,9.43v29.72h-12.54v-27.54c0-2.9-.75-5.17-2.24-6.81-1.49-1.64-3.56-2.46-6.21-2.46-1.75,0-3.32.38-4.7,1.15-1.38.77-2.45,1.87-3.22,3.32s-1.15,3.22-1.15,5.31Z"/>
        <path class="cls-1" d="M496.69,581.89c-4.71,0-8.77-1.01-12.18-3.03-3.41-2.02-6.05-4.83-7.9-8.44-1.85-3.61-2.78-7.81-2.78-12.6s.93-9.07,2.78-12.68c1.85-3.61,4.49-6.42,7.9-8.44,3.41-2.02,7.48-3.03,12.18-3.03,2.76,0,5.31.36,7.65,1.08,2.34.73,4.42,1.76,6.23,3.09,1.81,1.34,3.3,2.97,4.47,4.89,1.17,1.92,1.98,4.08,2.42,6.48l-11.66,2.17c-.25-1.23-.64-2.32-1.17-3.28-.53-.96-1.17-1.78-1.92-2.46s-1.62-1.2-2.61-1.57c-.99-.36-2.08-.54-3.28-.54-2.23,0-4.1.6-5.62,1.8-1.52,1.2-2.66,2.87-3.43,5.01-.77,2.15-1.15,4.63-1.15,7.44s.38,5.21,1.15,7.36c.77,2.15,1.91,3.83,3.43,5.06,1.52,1.23,3.39,1.84,5.62,1.84,1.2,0,2.3-.19,3.3-.57,1-.37,1.9-.92,2.67-1.63.78-.71,1.44-1.57,1.96-2.57.53-1,.91-2.13,1.13-3.38l11.66,2.13c-.45,2.48-1.25,4.69-2.42,6.63-1.17,1.94-2.66,3.6-4.47,4.99-1.81,1.4-3.9,2.45-6.25,3.18-2.35.73-4.92,1.09-7.71,1.09Z"/>
        <path class="cls-1" d="M543.85,581.89c-4.77,0-8.88-.98-12.33-2.93-3.46-1.95-6.11-4.72-7.96-8.32-1.85-3.59-2.78-7.86-2.78-12.79s.92-9.04,2.76-12.66c1.84-3.62,4.45-6.45,7.82-8.49,3.37-2.03,7.33-3.05,11.87-3.05,3.06,0,5.92.49,8.57,1.46,2.65.98,4.97,2.45,6.98,4.41,2.01,1.96,3.57,4.42,4.7,7.38,1.13,2.95,1.69,6.44,1.69,10.45v3.51h-39.25v-7.86h33.1l-5.85,2.09c0-2.42-.37-4.54-1.11-6.33-.74-1.8-1.84-3.19-3.3-4.18s-3.27-1.48-5.41-1.48-4.02.5-5.54,1.5c-1.52,1-2.67,2.36-3.45,4.07-.78,1.71-1.17,3.67-1.17,5.87v5.56c0,2.7.45,4.97,1.36,6.81.9,1.84,2.17,3.22,3.8,4.14,1.63.92,3.53,1.38,5.71,1.38,1.48,0,2.82-.21,4.01-.63,1.2-.42,2.22-1.04,3.07-1.86.85-.82,1.5-1.83,1.94-3.03l11.37,2.13c-.75,2.57-2.06,4.81-3.93,6.75-1.87,1.94-4.2,3.44-7,4.49-2.8,1.06-6.03,1.59-9.68,1.59Z"/>
        <path class="cls-1" d="M90.51,622.35v9.57h-30.51v-9.57h30.51ZM68.23,669.08v-50.32c0-3.32.66-6.08,1.99-8.28s3.13-3.85,5.41-4.95c2.28-1.1,4.88-1.65,7.77-1.65,1.98,0,3.78.16,5.41.48,1.63.32,2.82.59,3.57.81l-2.26,9.45c-.53-.14-1.15-.28-1.86-.42-.71-.14-1.48-.21-2.32-.21-1.9,0-3.24.45-4.03,1.36-.79.91-1.19,2.18-1.19,3.83v49.91h-12.5Z"/>
        <path class="cls-1" d="M114.43,670c-4.77,0-8.88-.98-12.33-2.93-3.46-1.95-6.11-4.72-7.96-8.32s-2.78-7.86-2.78-12.79.92-9.04,2.76-12.66c1.84-3.62,4.45-6.45,7.82-8.49,3.37-2.03,7.33-3.05,11.87-3.05,3.06,0,5.92.49,8.57,1.46,2.65.98,4.97,2.45,6.98,4.41,2.01,1.96,3.57,4.42,4.7,7.38,1.13,2.95,1.69,6.44,1.69,10.45v3.51h-39.25v-7.86h33.1l-5.85,2.09c0-2.42-.37-4.54-1.11-6.33-.74-1.8-1.84-3.19-3.3-4.18s-3.27-1.48-5.41-1.48-4.02.5-5.54,1.5c-1.52,1-2.67,2.36-3.45,4.07-.78,1.71-1.17,3.67-1.17,5.87v5.56c0,2.7.45,4.97,1.36,6.81.9,1.84,2.17,3.22,3.8,4.14s3.53,1.38,5.71,1.38c1.48,0,2.82-.21,4.01-.63,1.2-.42,2.22-1.04,3.07-1.86.85-.82,1.5-1.83,1.94-3.03l11.37,2.13c-.75,2.57-2.06,4.81-3.93,6.75-1.87,1.94-4.2,3.44-7,4.49-2.8,1.06-6.03,1.59-9.68,1.59Z"/>
        <path class="cls-1" d="M162,670c-4.77,0-8.88-.98-12.33-2.93-3.46-1.95-6.11-4.72-7.96-8.32-1.85-3.59-2.78-7.86-2.78-12.79s.92-9.04,2.76-12.66c1.84-3.62,4.45-6.45,7.82-8.49,3.37-2.03,7.33-3.05,11.87-3.05,3.06,0,5.92.49,8.57,1.46,2.65.98,4.97,2.45,6.98,4.41,2.01,1.96,3.57,4.42,4.7,7.38,1.13,2.95,1.69,6.44,1.69,10.45v3.51h-39.25v-7.86h33.1l-5.85,2.09c0-2.42-.37-4.54-1.11-6.33-.74-1.8-1.84-3.19-3.3-4.18s-3.27-1.48-5.41-1.48-4.02.5-5.54,1.5c-1.52,1-2.67,2.36-3.45,4.07-.78,1.71-1.17,3.67-1.17,5.87v5.56c0,2.7.45,4.97,1.36,6.81.9,1.84,2.17,3.22,3.8,4.14s3.53,1.38,5.71,1.38c1.48,0,2.82-.21,4.01-.63,1.2-.42,2.22-1.04,3.07-1.86.85-.82,1.5-1.83,1.94-3.03l11.37,2.13c-.75,2.57-2.06,4.81-3.93,6.75-1.87,1.94-4.2,3.44-7,4.49-2.8,1.06-6.03,1.59-9.68,1.59Z"/>
      </g>
    </g>
  </g>
</svg>